<?xml version="1.0" encoding="UTF-8"?>
<svg width="250px" height="250px" viewBox="0 0 250 250" version="1.1" xmlns="http://www.w3.org/2000/svg" xmlns:xlink="http://www.w3.org/1999/xlink">
    <!-- Generator: Sketch 58 (84663) - https://sketch.com -->
    <title>Artboard</title>
    <desc>Created with Sketch.</desc>
    <g id="Artboard" stroke="none" stroke-width="1" fill="none" fill-rule="evenodd">
        <path d="M124.98895,9 C58.7327726,9 5,62.4783988 5,128.451956 C5,181.226402 39.3804291,225.993388 87.065134,241.788324 C93.0690015,242.88825 95.256914,239.199832 95.256914,236.032045 C95.256914,233.201569 95.15378,225.685409 95.0948464,215.72008 C61.7162896,222.935594 54.6737162,199.705158 54.6737162,199.705158 C49.2149851,185.904754 41.3473403,182.231002 41.3473403,182.231002 C30.4519783,174.824834 42.1724117,174.97149 42.1724117,174.97149 C54.2169803,175.814767 60.5523497,187.283328 60.5523497,187.283328 C71.2561773,205.534766 88.6416096,200.262454 95.4779152,197.20466 C96.5681881,189.490513 99.6695724,184.225534 103.095092,181.241068 C76.4497069,178.227271 48.434114,167.975961 48.434114,122.204377 C48.434114,109.166588 53.111974,98.4973067 60.7880843,90.1525353 C59.5504773,87.1314054 55.4324872,74.9808903 61.9667577,58.540664 C61.9667577,58.540664 72.0370484,55.3288803 94.9622456,70.786506 C104.5316,68.1320181 114.800792,66.812107 125.003683,66.7607771 C135.199208,66.812107 145.461033,68.1320181 155.045121,70.786506 C177.955585,55.3288803 188.011142,58.540664 188.011142,58.540664 C194.560146,74.9808903 190.442156,87.1314054 189.211916,90.1525353 C196.902759,98.4973067 201.543786,109.166588 201.543786,122.204377 C201.543786,168.093287 173.483993,178.190607 146.757574,181.145741 C151.059732,184.83416 154.897787,192.123002 154.897787,203.268918 C154.897787,219.23251 154.750453,232.116309 154.750453,236.032045 C154.750453,239.229163 156.916265,242.946913 163.001166,241.780991 C210.649038,225.949391 245,181.211737 245,128.451956 C245,62.4783988 191.267227,9 124.98895,9" id="Fill-4" fill="#161514"></path>
    </g>
</svg>